<svg style="fill-rule:evenodd;clip-rule:evenodd;stroke-linejoin:round;stroke-miterlimit:2" viewBox="0 0 129 129" xml:space="preserve" xmlns="http://www.w3.org/2000/svg"><path style="fill:none" d="M0 0h128v128H0z" transform="translate(.835 .583)"/><path d="M4095.64 417.523v-17.707c0-1.38.5-2.499 1.12-2.499H4107c.62 0 1.13 1.119 1.13 2.499v17.707c0 1.379.5 2.499 1.12 2.499.62 0 1.12-1.12 1.12-2.499v-17.707c0-4.141-1.51-7.498-3.37-7.498h-10.24c-1.86 0-3.37 3.357-3.37 7.498v17.707c0 1.379.51 2.499 1.13 2.499.62 0 1.12-1.12 1.12-2.499Z" style="fill:#333" transform="translate(.835 .583) matrix(1.7826 0 0 .80018 -7248.03 -312.572)"/><path d="M3896.9 459.349h-84.71l-8 13.317v30.819c0 1.471.59 2.882 1.63 3.922a5.545 5.545 0 0 0 3.92 1.625h89.61a5.543 5.543 0 0 0 5.55-5.547v-30.819l-8-13.317Z" style="fill:#333" transform="translate(.835 .583) translate(-4105.93 -426.035) scale(1.08182)"/><path d="M3896.9 459.349h-84.71l-8 13.317v30.819c0 1.471.59 2.882 1.63 3.922a5.545 5.545 0 0 0 3.92 1.625h89.61a5.543 5.543 0 0 0 5.55-5.547v-30.819l-8-13.317Z" style="fill:#333" transform="translate(.835 .583) matrix(1.08182 0 0 -1.08182 -4105.93 567.832)"/><path d="M7246.43 8998.25v-7.35c0-1.59.63-3.12 1.75-4.25a6.043 6.043 0 0 1 4.25-1.75h96.95c1.59 0 3.11.63 4.24 1.75a6.052 6.052 0 0 1 1.76 4.25v33.34-25.99a6.012 6.012 0 0 0-6-6h-96.95c-1.59 0-3.12.63-4.25 1.76a6.002 6.002 0 0 0-1.75 4.24Z" style="fill:#191919" transform="translate(.835 .583) translate(-7236.9 -8967.75)"/><path d="M3810.94 421.173h6.06a1.85 1.85 0 0 0 1.85-1.848 1.85 1.85 0 0 0-1.85-1.849h-6.06a3.7 3.7 0 0 0-3.7 3.697v22.695c0 1.02.83 1.849 1.85 1.849s1.85-.829 1.85-1.849v-22.695Z" style="fill:#9e9e9e" transform="translate(.835 .583) translate(-4102.93 -426.035) scale(1.08182)"/><path d="M3810.94 421.173h6.06a1.85 1.85 0 0 0 1.85-1.848 1.85 1.85 0 0 0-1.85-1.849h-6.06c-.98 0-1.92.389-2.61 1.083a3.676 3.676 0 0 0-1.09 2.614v14.969a1.85 1.85 0 0 0 3.7 0v-14.969Z" style="fill:#9e9e9e" transform="translate(.835 .583) translate(-4094.59 -417.677) scale(1.08182)"/><path d="M3810.94 421.173h3.57a1.85 1.85 0 0 0 1.85-1.848 1.85 1.85 0 0 0-1.85-1.849h-3.57c-.98 0-1.92.389-2.61 1.083a3.676 3.676 0 0 0-1.09 2.614v6.143a1.85 1.85 0 0 0 3.7 0v-6.143Z" style="fill:#9e9e9e" transform="translate(.835 .583) translate(-4086.25 -408.129) scale(1.08182)"/><path d="M7254.92 9023.89v-24.36c0-2.21 1.79-4 4-4h6.37c0-.06.01-.12.01-.18a2 2 0 0 0-2-2h-6.56c-2.21 0-4 1.79-4 4v24.55a2 2 0 0 0 2 2c.06 0 .12-.01.18-.01Z" style="fill:#b6b6b6" transform="translate(.835 .583) translate(-7236.9 -8967.75)"/><path d="M7263.26 9023.89v-16c0-1.06.42-2.08 1.17-2.83s1.76-1.17 2.83-1.17h6.36c.01-.06.01-.12.01-.19a2 2 0 0 0-2-2h-6.56a4.014 4.014 0 0 0-4 4v16.2c0 1.1.9 2 2 2 .06 0 .12-.01.19-.01Zm8.33 0v-6.45c0-1.06.42-2.08 1.17-2.83s1.77-1.17 2.83-1.17h3.67c.01-.06.01-.13.01-.19a2 2 0 0 0-2-2h-3.86c-1.06 0-2.08.42-2.83 1.17s-1.17 1.77-1.17 2.83v6.65a2 2 0 0 0 2 2c.06 0 .12-.01.18-.01Z" style="fill:#b6b6b6" transform="translate(.835 .583) translate(-7236.9 -8967.75)"/><path d="M3846.87 419.235c0-.98-.39-1.921-1.08-2.614a3.72 3.72 0 0 0-2.62-1.083h-.36c-.98 0-1.92.389-2.61 1.083a3.676 3.676 0 0 0-1.09 2.614v14.699h7.76v-14.699Z" style="fill:#f43131" transform="translate(.835 .583) translate(-4100.87 -426.035) scale(1.08182)"/><path d="M6401.88 9000.3h-.18c-1.06 0-2.08.42-2.83 1.17s-1.17 1.77-1.17 2.83v15.9h4.18v-19.9Z" style="fill:#f76565" transform="translate(.835 .583) translate(-6345.33 -8976.79)"/><path d="M3841.13 434.255v19.022c0 1.004.83 1.818 1.85 1.818s1.85-.814 1.85-1.818v-19.022c0-1.003-.83-1.818-1.85-1.818s-1.85.815-1.85 1.818Z" style="fill:#b6b6b6" transform="translate(.835 .583) matrix(1.08182 0 0 1.10012 -4100.87 -434.329)"/><path d="M6401.88 9018.2a2 2 0 0 0-2 2v20.92a2 2 0 0 0 2 2v-24.92Z" style="fill:#c8c8c8" transform="translate(.835 .583) translate(-6345.33 -8976.79)"/><path d="M3808.67 9022.2h13.13a2 2 0 0 0 2-2c0-1.11-.89-2-2-2h-13.13c-1.11 0-2 .89-2 2a2 2 0 0 0 2 2Z" style="fill:#f43131" transform="translate(.835 .583) translate(-3758.68 -8976.79)"/><path d="M6393.31 9020.2h17.14a2 2 0 0 0-2-2h-13.14a2 2 0 0 0-2 2Z" style="fill:#f76565" transform="translate(.835 .583) translate(-6345.33 -8976.79)"/><path d="M3846.87 424.734c0-1.801-.06-3.48-.17-4.898-.19-2.583-.53-4.298-.92-4.298h-6.67v18.396h6.67c.6 0 1.09-4.117 1.09-9.196v-.004Z" style="fill:#b6b6b6" transform="translate(.835 .583) matrix(3.21916 0 0 .3804 -12278 -104.426)"/><path d="M6451.04 9033.94h-24.97v3.49h21.47c1.93 0 3.5-1.56 3.5-3.49Z" style="fill:#888" transform="translate(.835 .583) translate(-6345.33 -8976.79)"/><path d="M3871.45 443.331a3.303 3.303 0 0 0-3.3-3.301h-6.6c-1.82 0-3.3 1.479-3.3 3.301v6.602a3.303 3.303 0 0 0 3.3 3.301h6.6c1.82 0 3.3-1.479 3.3-3.301v-6.602Z" style="fill:#b6b6b6" transform="translate(.835 .583) translate(-4107.48 -426.035) scale(1.08182)"/><path d="M6411.79 9032.82v4.69c0 1.97 1.6 3.57 3.57 3.57h7.14c1.97 0 3.57-1.6 3.57-3.57v-4.69c0 1.97-1.6 3.57-3.57 3.57h-7.14c-1.97 0-3.57-1.6-3.57-3.57Z" style="fill:#888" transform="translate(.835 .583) translate(-6345.33 -8976.79)"/><path d="M3830.37 9032.03a1.996 1.996 0 0 0 0 3.81c.26.82 1.02 1.41 1.91 1.41.9 0 1.66-.59 1.91-1.41a1.996 1.996 0 0 0 0-3.81c-.25-.81-1.01-1.4-1.91-1.4-.89 0-1.65.59-1.91 1.4Z" style="fill:#767676" transform="translate(.835 .583) translate(-3758.68 -8976.79)"/><path d="M3863.94 443.873a3.44 3.44 0 0 0-3.44 3.438 3.44 3.44 0 0 0 6.88 0 3.44 3.44 0 0 0-3.44-3.438Zm0 1.765a1.674 1.674 0 0 1 0 3.346c-.93 0-1.68-.75-1.68-1.673s.75-1.673 1.68-1.673Z" style="fill:#b6b6b6" transform="translate(.835 .583) translate(-8677.59 -980.899) scale(2.26523)"/><path d="M3863.94 443.556a3.763 3.763 0 0 0-3.76 3.755 3.763 3.763 0 0 0 3.76 3.755c2.07 0 3.76-1.683 3.76-3.755a3.763 3.763 0 0 0-3.76-3.755Zm0 2.399c.75 0 1.36.607 1.36 1.356 0 .749-.61 1.356-1.36 1.356-.75 0-1.36-.607-1.36-1.356 0-.749.61-1.356 1.36-1.356Z" style="fill:#b6b6b6" transform="translate(.835 .583) translate(-6353.48 -712.164) scale(1.66786)"/><path d="M3863.94 443.284a4.027 4.027 0 1 0 0 8.054c2.22 0 4.03-1.805 4.03-4.027a4.033 4.033 0 0 0-4.03-4.027Zm0 2.943c.6 0 1.09.485 1.09 1.084 0 .598-.49 1.084-1.09 1.084-.6 0-1.09-.486-1.09-1.084 0-.599.49-1.084 1.09-1.084Z" style="fill:#b6b6b6" transform="translate(.835 .583) translate(-5145.81 -573.142) scale(1.35883)"/><path d="M6428.11 9007.71a7.803 7.803 0 0 1-15.33 0c-.08.47-.13.95-.13 1.45 0 4.3 3.49 7.79 7.79 7.79 4.31 0 7.8-3.49 7.8-7.79 0-.5-.05-.98-.13-1.45Zm2.03 2.24c-.03.24-.04.49-.04.73 0 3.46 2.81 6.27 6.27 6.27 3.46 0 6.26-2.81 6.26-6.27 0-.24-.01-.49-.04-.73a6.257 6.257 0 0 1-6.22 5.53c-3.22 0-5.86-2.41-6.23-5.53Zm14.39.85c-.02.22-.04.45-.04.67 0 3.02 2.46 5.48 5.48 5.48 3.02 0 5.48-2.46 5.48-5.48 0-.22-.02-.45-.05-.67-.33 2.7-2.64 4.8-5.43 4.8-2.79 0-5.1-2.1-5.44-4.8Z" style="fill:#888" transform="translate(.835 .583) translate(-6345.33 -8976.79)"/><path d="M7346.72 9038.65h-6.74l8.65 14.4v33.34c0 1.59-.63 3.12-1.75 4.25a6.043 6.043 0 0 1-4.25 1.75h6.75c1.59 0 3.11-.63 4.24-1.75a6.052 6.052 0 0 0 1.76-4.25v-33.34l-8.66-14.4Zm2.66-53.75c1.59 0 3.11.63 4.24 1.75a6.052 6.052 0 0 1 1.76 4.25v33.34l-8.66 14.41h-6.96l8.65-14.41v-33.34c0-1.59-.63-3.12-1.76-4.25a6.002 6.002 0 0 0-4.24-1.75h6.97Z" style="fill:#191919" transform="translate(.835 .583) translate(-7236.9 -8967.75)"/><path d="M7246.43 9085.74v.65c0 1.59.63 3.12 1.75 4.25a6.043 6.043 0 0 0 4.25 1.75h96.95c1.59 0 3.11-.63 4.24-1.75a6.052 6.052 0 0 0 1.76-4.25v-.65h-108.95Z" style="fill:#191919" transform="translate(.835 .583) translate(-7236.9 -8967.75)"/><path d="M3840.51 9062.27h12.55c.9 2.97 3.66 5.12 6.91 5.1 1.95-.01 3.71-.81 5-2.08.78-.78.79-2.04.01-2.83-.78-.78-2.05-.79-2.83-.01-.57.56-1.34.91-2.21.92-1.74.01-3.17-1.4-3.18-3.14a3.169 3.169 0 0 1 3.14-3.19c.87-.01 1.66.34 2.24.89.79.76 2.06.73 2.82-.07.77-.79.74-2.06-.06-2.82a7.196 7.196 0 0 0-5.02-2 7.174 7.174 0 0 0-6.86 5.23h-12.48a7.7 7.7 0 0 0-7.39-5.76c-2.09-.01-3.99.81-5.39 2.15-.8.76-.83 2.03-.07 2.83.76.79 2.03.83 2.83.06a3.78 3.78 0 0 1 2.6-1.04c2.04.02 3.68 1.68 3.67 3.72a3.688 3.688 0 0 1-3.72 3.66c-1 0-1.91-.41-2.57-1.07-.78-.77-2.05-.77-2.83.01-.78.79-.77 2.06.01 2.83a7.64 7.64 0 0 0 5.37 2.23c3.54.03 6.55-2.36 7.46-5.62Z" style="fill:#b6b6b6" transform="translate(.835 .583) translate(-3758.68 -8976.79)"/><path d="M6420.92 9067.81a7.733 7.733 0 0 1-4.25-2.15c-.78-.77-.78-2.04-.01-2.83.08-.07.16-.15.25-.21-.78-.57-1.89-.5-2.59.21-.78.79-.77 2.06.01 2.83a7.635 7.635 0 0 0 5.36 2.23c.42.01.83-.02 1.23-.08Zm21.13-5.54h-2.34a7.162 7.162 0 0 0 6.91 5.1c.38 0 .76-.04 1.12-.1a7.162 7.162 0 0 1-5.69-5Zm-21.13-5.57a3.7 3.7 0 0 1 2.51 3.53 3.675 3.675 0 0 1-2.51 3.47 3.685 3.685 0 0 0 4.86-3.47c.01-2.04-1.63-3.7-3.67-3.72-.42 0-.82.07-1.19.19Zm26.82 6.44c.37.15.77.23 1.2.23.86-.01 1.63-.36 2.2-.92.08-.07.16-.14.24-.2-.78-.57-1.88-.5-2.58.2-.3.3-.66.54-1.06.69Zm0-5.88c.39.16.74.39 1.04.67.71.68 1.79.73 2.56.18-.08-.06-.15-.11-.21-.18-.58-.55-1.37-.9-2.24-.89-.4 0-.79.08-1.15.22Zm-8.07 1.01h2.34c.75-2.65 2.97-4.68 5.73-5.13-.39-.07-.8-.1-1.22-.1a7.162 7.162 0 0 0-6.85 5.23Zm-22.71-.54c-.1-.07-.19-.15-.28-.24-.76-.8-.73-2.07.07-2.83a7.75 7.75 0 0 1 4.17-2.06c-.37-.05-.74-.08-1.13-.09-2.08-.01-3.98.81-5.39 2.15a2.004 2.004 0 0 0 2.56 3.07Z" style="fill:#dbdbdb" transform="translate(.835 .583) translate(-6345.33 -8976.79)"/><path d="M3845.89 9078.44h8.75a5.868 5.868 0 0 0 5.56 3.84c1.6-.01 3.05-.66 4.11-1.71a2 2 0 0 0-2.82-2.84 1.888 1.888 0 0 1-3.22-1.33 1.886 1.886 0 0 1 3.21-1.36c.8.76 2.07.73 2.83-.07.76-.8.73-2.06-.07-2.83a5.9 5.9 0 0 0-4.12-1.64 5.903 5.903 0 0 0-5.52 3.94h-8.67c-.82-2.5-3.16-4.32-5.94-4.33a6.24 6.24 0 0 0-4.4 1.75c-.8.76-.83 2.03-.07 2.82.76.8 2.03.83 2.83.07.42-.4.99-.65 1.62-.64 1.26 0 2.28 1.04 2.27 2.3a2.288 2.288 0 0 1-2.3 2.27c-.62-.01-1.19-.26-1.6-.67-.78-.77-2.05-.77-2.83.02-.77.78-.77 2.05.02 2.82a6.234 6.234 0 0 0 4.38 1.83c2.77.02 5.13-1.76 5.98-4.24Zm2.44 14.08h6.86c.8 1.9 2.69 3.22 4.87 3.21 1.43-.01 2.73-.59 3.67-1.53.78-.77.79-2.04.01-2.82-.78-.79-2.04-.79-2.83-.02a1.2 1.2 0 0 1-.87.37c-.69 0-1.26-.55-1.26-1.25a1.25 1.25 0 0 1 2.13-.9c.8.76 2.07.73 2.83-.07.76-.8.73-2.06-.07-2.83a5.253 5.253 0 0 0-3.68-1.46 5.281 5.281 0 0 0-4.84 3.3h-6.79a5.587 5.587 0 0 0-5.19-3.63c-1.52-.01-2.9.59-3.91 1.55-.8.77-.83 2.03-.07 2.83.76.8 2.03.83 2.83.07.29-.28.68-.45 1.12-.45a1.6 1.6 0 0 1 1.58 1.6 1.592 1.592 0 0 1-2.71 1.11c-.78-.78-2.05-.77-2.82.01-.78.78-.78 2.05.01 2.83 1 .99 2.37 1.61 3.89 1.62a5.59 5.59 0 0 0 5.24-3.54Z" style="fill:#b6b6b6" transform="translate(.835 .583) translate(-3758.68 -8976.79)"/><path d="M6427.47 9082.62a6.239 6.239 0 0 1-3.55-1.77c-.78-.77-.79-2.04-.01-2.82.16-.17.35-.3.54-.39-.74-.37-1.67-.24-2.29.39-.78.78-.77 2.05.01 2.82a6.276 6.276 0 0 0 5.3 1.77Zm15.56-4.18h-1.75a5.887 5.887 0 0 0 5.56 3.84c.28 0 .56-.02.84-.06a5.905 5.905 0 0 1-4.65-3.78Zm-15.56-4.16c.84.34 1.42 1.17 1.41 2.13 0 .94-.58 1.75-1.41 2.09.27.11.56.18.86.18 1.26.01 2.29-1.01 2.3-2.27.01-1.26-1.01-2.3-2.27-2.3-.31-.01-.61.06-.89.17Zm20.21 3.79c.26.14.56.21.88.21.52 0 .98-.21 1.32-.55.16-.16.34-.28.54-.38a2.02 2.02 0 0 0-2.29.38c-.13.14-.28.25-.45.34Zm0-3.35c.16.08.32.19.45.32.62.59 1.52.7 2.25.35-.18-.09-.35-.21-.5-.35-.35-.34-.82-.54-1.34-.54-.31 0-.6.08-.86.22Zm-23.19.38c-.21-.1-.4-.24-.57-.42-.77-.79-.73-2.06.06-2.82.94-.9 2.15-1.51 3.49-1.69a5.69 5.69 0 0 0-.83-.06c-1.71-.02-3.26.65-4.4 1.75-.8.76-.83 2.03-.07 2.82.61.65 1.56.79 2.32.42Zm16.75-.66h1.75c.71-2.02 2.5-3.55 4.69-3.87-.3-.05-.61-.07-.92-.07a5.913 5.913 0 0 0-5.52 3.94Zm-10.65 21.56a5.602 5.602 0 0 1-3.12-1.56 2.004 2.004 0 0 1 .6-3.25 2.004 2.004 0 0 0-2.23 3.25 5.588 5.588 0 0 0 4.75 1.56Zm12.87-3.48h-1.63a5.272 5.272 0 0 0 5.66 3.15 5.302 5.302 0 0 1-4.03-3.15Zm-12.87-3.41c.46.28.77.79.77 1.38 0 .57-.31 1.07-.77 1.34.23.15.51.23.8.23.88.01 1.59-.7 1.6-1.57a1.594 1.594 0 0 0-2.4-1.38Zm16.9 2.32a1.253 1.253 0 0 0 1.7-.07c.17-.17.37-.31.59-.4a2 2 0 0 0-2.22.4l-.07.07Zm0-1.91c.03.02.05.04.07.06.6.58 1.47.7 2.19.38-.2-.09-.39-.22-.56-.38-.24-.22-.55-.36-.89-.36-.31 0-.59.12-.81.3Zm-19.39.2a2.005 2.005 0 0 1-.57-3.28 5.6 5.6 0 0 1 3.06-1.49c-.25-.04-.51-.06-.78-.06a5.65 5.65 0 0 0-3.91 1.55c-.8.77-.83 2.03-.07 2.83.6.63 1.51.78 2.27.45Zm13.7-1.2h1.63a5.272 5.272 0 0 1 4.06-3.24 5.26 5.26 0 0 0-5.69 3.24Z" style="fill:#dbdbdb" transform="translate(.835 .583) translate(-6345.33 -8976.79)"/><path d="M3853.25 475.046s-7.67 5.57-15.05.59c-4.26-2.871-5.83-5.013-7.33-6.407-1.98-1.847-3.79-2.877-8.94-2.787a2.678 2.678 0 0 0-2.63 2.72 2.68 2.68 0 0 0 2.72 2.627c1.89-.032 3.07.075 3.96.467.83.368 1.37.985 2.12 1.754 1.45 1.497 3.33 3.513 7.11 6.06 10.37 6.999 21.16-.678 21.16-.678a2.677 2.677 0 0 0 .62-3.732 2.684 2.684 0 0 0-3.74-.614Z" style="fill:#b6b6b6" transform="translate(.835 .583) translate(-2823.01 -267.769) scale(.74784)"/><path d="M7270.41 9049.81c-.18.3-.27.65-.27 1.03a2 2 0 0 0 2.04 1.96c1.41-.02 2.29.06 2.95.35.63.28 1.03.74 1.59 1.31 1.08 1.12 2.49 2.63 5.32 4.54 7.76 5.23 15.82-.51 15.82-.51.84-.61 1.08-1.74.57-2.62-.14.24-.33.45-.57.62 0 0-8.06 5.75-15.82.51-2.83-1.9-4.24-3.41-5.32-4.53-.56-.58-.96-1.04-1.59-1.31-.66-.3-1.54-.38-2.95-.35-.76.01-1.42-.39-1.77-1Z" style="fill:#767676" transform="translate(.835 .583) translate(-7236.9 -8967.75)"/><path d="M7297.86 9048.21s-8.06-5.74-15.82-.51c-2.83 1.91-4.24 3.42-5.32 4.54-.56.57-.96 1.03-1.59 1.31-.66.29-1.54.37-2.95.35a2 2 0 1 0-.07 4c3.85.06 5.2-.71 6.69-2.09 1.11-1.04 2.29-2.64 5.47-4.79 5.52-3.72 11.26.44 11.26.44.9.65 2.15.44 2.79-.46.65-.89.44-2.14-.46-2.79Z" style="fill:#b6b6b6" transform="translate(.835 .583) translate(-7236.9 -8967.75)"/><path d="M7270.37 9056.82a1.98 1.98 0 0 1 1.81-1.07c1.41.02 2.29-.06 2.95-.35.63-.28 1.03-.74 1.59-1.31 1.08-1.12 2.49-2.63 5.32-4.54 7.76-5.23 15.82.51 15.82.51.27.19.47.43.61.7.46-.87.21-1.96-.61-2.55 0 0-8.06-5.74-15.82-.51-2.83 1.91-4.24 3.42-5.32 4.54-.56.57-.96 1.03-1.59 1.31-.66.29-1.54.37-2.95.35a2 2 0 0 0-2.04 1.96c0 .35.08.67.23.96Z" style="fill:#dbdbdb" transform="translate(.835 .583) translate(-7236.9 -8967.75)"/><path style="fill:#f7d070" transform="translate(.835 .583) matrix(.857 0 0 1.08182 -3247.43 -428.199)" d="M3823.55 490.563h40.934v7.453h-40.934z"/><path style="fill:#b99c54" transform="translate(.835 .583) matrix(.857 0 0 .5318 -3247.43 -154.277)" d="M3823.55 490.563h40.934v7.453h-40.934z"/><path d="M3864.48 490.563h-17.22c-13.09 0-23.71 1.056-23.71 2.358v5.096h40.93v-7.454Z" style="fill:#9e9e9e" transform="translate(.835 .583) matrix(.28235 0 0 2.84021 -1061.76 -1297.35)"/><path d="M7266.29 9068.29v-4.59h-4.86c-3.7 0-6.7 2.99-6.7 6.69v14.48h4.59v-9.88c0-3.7 3-6.7 6.7-6.7h.27Z" style="fill:#b6b6b6" transform="translate(.835 .583) translate(-7236.9 -8967.75)"/><path d="M3893.47 457.5h-79.17a1.85 1.85 0 0 0-1.85 1.849c0 1.02.83 1.848 1.85 1.848h79.17a1.85 1.85 0 0 0 1.85-1.848 1.85 1.85 0 0 0-1.85-1.849Z" style="fill:#191919" transform="translate(.835 .583) translate(-4105.93 -426.035) scale(1.08182)"/></svg>