<svg height="512" style="enable-background:new 0 0 512 512" viewBox="0 0 512 512" width="512" xml:space="preserve" xmlns="http://www.w3.org/2000/svg"><path d="M79.31 193.66c10 0 18.12 8.12 18.12 18.13s-8.12 18.12-18.12 18.12c-10.01 0-18.13-8.11-18.13-18.12 0-10.01 8.12-18.13 18.13-18.13z" style="fill:#ffd15c"/><path d="M66.18 222.457c0-10.01 8.12-18.13 18.13-18.13 5.11 0 9.72 2.128 13.016 5.537-.963-9.104-8.666-16.204-18.016-16.204-10.01 0-18.13 8.12-18.13 18.13 0 4.894 1.95 9.326 5.104 12.585-.067-.63-.104-1.27-.104-1.918z" style="fill:#eabb53"/><path d="M189.279 198.04c.891.87 1.74 1.78 2.561 2.73-3.32 3.85-7.24 7.08-11.6 9.5-5.69 3.16-12.12 4.95-18.931 4.95-6.66 0-12.95-1.71-18.54-4.74-4.51-2.44-8.56-5.74-11.979-9.71 3.37-3.91 7.35-7.18 11.77-9.61 5.65-3.1 12.01-4.84 18.75-4.84 6.891 0 13.391 1.82 19.13 5.05a42.5 42.5 0 0 1 8.839 6.67z" style="fill:#8eaa39"/><path d="M139.957 205.77c3.37-3.91 7.35-7.18 11.77-9.61 5.65-3.1 12.01-4.84 18.75-4.84 4.878 0 9.553.928 13.908 2.606a42.102 42.102 0 0 0-3.945-2.557c-5.739-3.23-12.239-5.05-19.13-5.05-6.74 0-13.1 1.74-18.75 4.84-4.42 2.43-8.399 5.7-11.77 9.61 3.42 3.97 7.47 7.27 11.979 9.71a39.844 39.844 0 0 0 4.613 2.125 43.445 43.445 0 0 1-7.425-6.834z" style="fill:#7e9331"/><path d="M178.66 125.69c3.1 5.64 4.85 12.01 4.85 18.75 0 6.89-1.83 13.39-5.06 19.13-2.41 4.27-5.591 8.12-9.391 11.39-3.859-3.32-7.09-7.24-9.51-11.59-3.16-5.69-4.94-12.12-4.94-18.93 0-6.66 1.7-12.95 4.73-18.55 2.439-4.51 5.75-8.56 9.72-11.98 3.911 3.37 7.17 7.35 9.601 11.78z" style="fill:#8eaa39"/><path d="M158.609 155.8c0-6.66 1.7-12.95 4.73-18.55 2.439-4.51 5.75-8.56 9.72-11.98 3.91 3.37 7.17 7.35 9.601 11.78.069.127.13.26.198.388a39.158 39.158 0 0 0-4.198-11.748c-2.431-4.43-5.69-8.41-9.601-11.78-3.97 3.42-7.28 7.47-9.72 11.98-3.03 5.6-4.73 11.89-4.73 18.55 0 6.592 1.681 12.821 4.653 18.375a38.628 38.628 0 0 1-.653-7.015z" style="fill:#7e9331"/><path d="M244.729 56.36c11.19 11.2 5.311 29.84 4.261 53.28-23.45 1.05-42.07 6.92-53.271-4.28-6.18-6.18-5.71-16.68 1.05-23.44 6.13-6.12 11.99-6.39 20.65-3.85-2.54-8.66-2.28-14.52 3.85-20.65 6.771-6.77 17.271-7.24 23.46-1.06z" style="fill:#ef3e5c"/><path d="M244.729 56.36c-6.189-6.18-16.689-5.71-23.46 1.06-4.595 4.595-5.892 9.038-5.183 14.623a23.003 23.003 0 0 1 2.316-2.694c6.771-6.77 17.271-7.24 23.46-1.06 9.235 9.244 6.845 23.559 5.137 41.454.66-.037 1.322-.072 1.99-.102 1.051-23.441 6.931-42.081-4.26-53.281z" style="fill:#e42a53"/><path d="M399.49 176.29c30.72 4.42 51.33 12.58 51.33 21.91 0 9.32-20.61 17.48-51.33 21.9 18.59 24.84 27.399 45.18 20.81 51.78-6.6 6.601-26.939-2.21-51.79-20.81-4.42 30.72-12.569 51.331-21.899 51.331s-17.48-20.61-21.9-51.331c-24.85 18.6-45.18 27.411-51.78 20.81-6.6-6.6 2.21-26.94 20.801-51.78-30.711-4.42-51.32-12.58-51.32-21.9 0-9.33 20.609-17.49 51.32-21.91-18.591-24.84-27.4-45.18-20.801-51.78 6.601-6.59 26.931 2.21 51.78 20.81 4.42-30.72 12.57-51.33 21.9-51.33s17.479 20.61 21.899 51.33c24.851-18.6 45.19-27.4 51.79-20.81 6.59 6.6-2.22 26.94-20.81 51.78zm-21.16 21.91c0-17.52-14.2-31.72-31.72-31.72-17.511 0-31.71 14.2-31.71 31.72 0 17.51 14.199 31.71 31.71 31.71 17.52 0 31.72-14.2 31.72-31.71z" style="fill:#ef3e5c"/><path d="M255.995 206.584c0-9.33 20.609-17.49 51.32-21.91-18.591-24.84-27.4-45.18-20.801-51.78 4.39-4.382 14.855-1.952 28.681 5.634-20.426-13.846-36.53-19.745-42.266-14.019-6.6 6.6 2.21 26.94 20.801 51.78-30.711 4.42-51.32 12.58-51.32 21.91 0 4.906 5.716 9.489 15.604 13.376-1.321-1.614-2.019-3.283-2.019-4.991z" style="fill:#e42a53"/><path d="M346.61 166.48c17.52 0 31.72 14.2 31.72 31.72 0 17.51-14.2 31.71-31.72 31.71-17.511 0-31.71-14.2-31.71-31.71 0-17.52 14.2-31.72 31.71-31.72z" style="fill:#be0000"/><path d="M322.9 211.32c0-17.52 14.199-31.72 31.71-31.72 8.69 0 16.562 3.497 22.291 9.157-4.019-12.908-16.06-22.277-30.291-22.277-17.511 0-31.71 14.2-31.71 31.72 0 8.824 3.609 16.805 9.428 22.554a31.687 31.687 0 0 1-1.428-9.434z" style="fill:#a80404"/><path d="M166.29 320.521c17.52 0 31.72 14.2 31.72 31.72 0 17.51-14.2 31.71-31.72 31.71-17.511 0-31.71-14.2-31.71-31.71 0-17.52 14.199-31.72 31.71-31.72z" style="fill:#d04125"/><path d="M139.58 365.24c0-17.52 14.199-31.72 31.71-31.72 11.002 0 20.692 5.603 26.382 14.108-2.233-15.333-15.429-27.108-31.382-27.108-17.511 0-31.71 14.2-31.71 31.72a31.556 31.556 0 0 0 5.337 17.604 31.902 31.902 0 0 1-.337-4.604z" style="fill:#bc3320"/><path d="M219.17 330.33c30.72 4.42 51.33 12.58 51.33 21.91s-20.61 17.48-51.33 21.9c18.6 24.84 27.399 45.18 20.81 51.779-6.6 6.601-26.939-2.21-51.779-20.81-4.421 30.72-12.58 51.33-21.91 51.33-9.32 0-17.48-20.61-21.9-51.33-24.84 18.6-45.18 27.41-51.78 20.81-6.6-6.6 2.21-26.939 20.811-51.779-30.72-4.42-51.33-12.57-51.33-21.9s20.61-17.49 51.33-21.91c-18.601-24.84-27.41-45.18-20.811-51.779 6.601-6.591 26.94 2.21 51.78 20.81 4.42-30.72 12.58-51.331 21.9-51.331 9.33 0 17.489 20.611 21.91 51.331 24.84-18.6 45.18-27.4 51.779-20.81 6.589 6.599-2.21 26.939-20.81 51.779zm-21.16 21.91c0-17.52-14.2-31.72-31.72-31.72-17.511 0-31.71 14.2-31.71 31.72 0 17.51 14.199 31.71 31.71 31.71 17.52 0 31.72-14.2 31.72-31.71z" style="fill:#f3705a"/><path d="M79.305 356.346c0-9.33 20.61-17.49 51.33-21.91-18.601-24.84-27.41-45.18-20.811-51.779 1.1-1.098 2.587-1.759 4.405-2.028-10.301-4.676-18.014-5.678-21.62-2.077-6.6 6.6 2.21 26.939 20.811 51.779-30.72 4.42-51.33 12.58-51.33 21.91 0 8.181 15.847 15.454 40.459 20.102-14.531-4.368-23.244-9.933-23.244-15.997z" style="fill:#e25a49"/><path d="M206.16 219.92c-1.28 0-2.56-.488-3.536-1.464l-76.88-76.891a5 5 0 0 1 7.071-7.071l76.88 76.89a5 5 0 0 1-3.535 8.536z" style="fill:#743629"/><path d="M388.537 441.363c.271-9.997 8.607-17.895 18.614-17.623 10.006.271 17.894 8.609 17.622 18.605-.271 10.006-8.599 17.902-18.605 17.631s-17.902-8.607-17.631-18.613z" style="fill:#ffd15c"/><path d="M416.967 455.268c-10.006-.271-17.904-8.607-17.633-18.613.139-5.109 2.392-9.66 5.889-12.861-9.127.716-16.433 8.224-16.686 17.57-.271 10.006 7.624 18.342 17.631 18.613 4.893.133 9.375-1.695 12.719-4.761-.632.05-1.272.069-1.92.052z" style="fill:#eabb53"/><path d="M395.896 331.552a44.491 44.491 0 0 1 2.798-2.485c3.759 3.423 6.881 7.429 9.183 11.854 3.004 5.773 4.619 12.25 4.435 19.058-.181 6.657-2.061 12.898-5.24 18.403-2.562 4.443-5.97 8.402-10.032 11.713-3.817-3.475-6.978-7.541-9.286-12.025-2.945-5.732-4.513-12.137-4.33-18.874.187-6.889 2.182-13.337 5.565-18.987a42.488 42.488 0 0 1 6.907-8.657z" style="fill:#8eaa39"/><path d="M402.286 381.066c-3.817-3.476-6.978-7.543-9.287-12.027-2.945-5.731-4.513-12.137-4.329-18.874a38.555 38.555 0 0 1 2.981-13.831 42.26 42.26 0 0 0-2.663 3.873c-3.384 5.65-5.379 12.099-5.565 18.987-.183 6.737 1.385 13.142 4.33 18.874 2.309 4.484 5.469 8.551 9.286 12.025 4.063-3.311 7.471-7.27 10.032-11.713a39.771 39.771 0 0 0 2.249-4.554 43.328 43.328 0 0 1-7.034 7.24z" style="fill:#7e9331"/><path d="M323.284 340.206c5.723-2.945 12.138-4.522 18.875-4.34 6.888.188 13.336 2.191 18.986 5.577 4.203 2.524 7.965 5.808 11.131 9.695-3.424 3.769-7.43 6.891-11.844 9.192-5.773 3.005-12.249 4.608-19.057 4.424-6.658-.181-12.898-2.05-18.415-5.23-4.442-2.562-8.4-5.98-11.712-10.041 3.476-3.817 7.543-6.967 12.036-9.277z" style="fill:#8eaa39"/><path d="M352.84 361.064c-6.657-.181-12.898-2.05-18.414-5.23-4.442-2.562-8.401-5.979-11.713-10.041 3.475-3.817 7.541-6.968 12.036-9.277.13-.066.265-.123.394-.188a39.13 39.13 0 0 0-11.858 3.878c-4.493 2.31-8.561 5.46-12.035 9.277 3.312 4.061 7.27 7.479 11.712 10.041 5.517 3.181 11.757 5.05 18.415 5.23 6.589.179 12.863-1.331 18.494-4.152-2.294.361-4.64.528-7.031.462z" style="fill:#7e9331"/><path d="M418.227 315.271a4.983 4.983 0 0 1-1.561 3.495l-78.947 74.768a5 5 0 0 1-6.876-7.26l78.947-74.768a5 5 0 0 1 8.437 3.765z" style="fill:#743629"/><path d="M133.55 126.64c.89 5.16.78 10.71-.271 16.39-5.77 1.07-11.409 1.16-16.63.23-6.83-1.22-12.96-4.18-17.77-9-4.71-4.71-7.65-10.67-8.92-17.31-1.021-5.35-.96-11.15.149-17.09 5.851-1.08 11.561-1.16 16.841-.19 6.739 1.24 12.79 4.2 17.56 8.96 4.871 4.87 7.85 11.09 9.041 18.01z" style="fill:#8eaa39"/><path d="M96.293 128.116c-1.02-5.35-.96-11.15.15-17.09 5.85-1.08 11.56-1.16 16.84-.19 6.74 1.24 12.79 4.2 17.56 8.96.478.478.923.979 1.364 1.482-1.578-4.77-4.124-9.075-7.697-12.648-4.77-4.76-10.82-7.72-17.56-8.96-5.28-.97-10.99-.89-16.841.19-1.109 5.94-1.17 11.74-.149 17.09 1.14 5.961 3.639 11.366 7.544 15.819a36.836 36.836 0 0 1-1.211-4.653z" style="fill:#7e9331"/><path d="M321.905 384.188c5.182-.75 10.727-.489 16.376.714.913 5.797.851 11.438-.221 16.631-1.404 6.795-4.529 12.841-9.479 17.519-4.836 4.58-10.873 7.358-17.546 8.448-5.375.874-11.171.656-17.079-.614-.922-5.877-.847-11.588.267-16.839 1.423-6.704 4.545-12.672 9.433-17.311 5.001-4.735 11.299-7.547 18.249-8.548z" style="fill:#8eaa39"/><path d="M322.371 421.471c-5.376.874-11.172.658-17.08-.613-.921-5.877-.846-11.586.267-16.839 1.423-6.704 4.545-12.671 9.434-17.31a29.105 29.105 0 0 1 1.518-1.324c-4.812 1.448-9.184 3.877-12.853 7.352-4.888 4.639-8.01 10.606-9.433 17.311-1.113 5.251-1.188 10.962-.267 16.839 5.908 1.271 11.704 1.488 17.079.614 5.99-.979 11.462-3.33 16.019-7.112-1.521.457-3.082.82-4.684 1.082z" style="fill:#7e9331"/><g/></svg>