<svg xmlns="http://www.w3.org/2000/svg" viewBox="0 0 117.72 117.72" style="enable-background:new 0 0 117.72 117.72" xml:space="preserve"><path d="M58.86 0c9.13 0 17.77 2.08 25.49 5.79-3.16 2.5-6.09 4.9-8.82 7.21a48.673 48.673 0 0 0-16.66-2.92c-13.47 0-25.67 5.46-34.49 14.29-8.83 8.83-14.29 21.02-14.29 34.49 0 13.47 5.46 25.66 14.29 34.49 8.83 8.83 21.02 14.29 34.49 14.29s25.67-5.46 34.49-14.29c8.83-8.83 14.29-21.02 14.29-34.49 0-3.2-.31-6.34-.9-9.37 2.53-3.3 5.12-6.59 7.77-9.85a58.762 58.762 0 0 1 3.21 19.22c0 16.25-6.59 30.97-17.24 41.62-10.65 10.65-25.37 17.24-41.62 17.24-16.25 0-30.97-6.59-41.62-17.24C6.59 89.83 0 75.11 0 58.86c0-16.25 6.59-30.97 17.24-41.62S42.61 0 58.86 0zM31.44 49.19 45.8 49l1.07.28c2.9 1.67 5.63 3.58 8.18 5.74a56.18 56.18 0 0 1 5.27 5.1c5.15-8.29 10.64-15.9 16.44-22.9a196.16 196.16 0 0 1 20.17-20.98l1.4-.54H114l-3.16 3.51C101.13 30 92.32 41.15 84.36 52.65a325.966 325.966 0 0 0-21.41 35.62l-1.97 3.8-1.81-3.87c-3.34-7.17-7.34-13.75-12.11-19.63-4.77-5.88-10.32-11.1-16.79-15.54l1.17-3.84z" style="fill:#01a601"/></svg>